<?xml version="1.0" encoding="UTF-8"?>
<svg xmlns="http://www.w3.org/2000/svg" version="1.1" width="544px" height="544px" xmlns:xlink="http://www.w3.org/1999/xlink">
  <path fill="#000000" d="M -0.5,-0.5 C 180.833,-0.5 362.167,-0.5 543.5,-0.5C 543.5,180.833 543.5,362.167 543.5,543.5C 362.167,543.5 180.833,543.5 -0.5,543.5C -0.5,362.167 -0.5,180.833 -0.5,-0.5 Z"/>
  <path fill="#40a596" d="M 327.5,131.5 C 330.785,131.269 333.285,132.603 335,135.5C 341.333,143.167 347.667,150.833 354,158.5C 354.688,159.332 354.521,159.998 353.5,160.5C 337.304,161.828 321.137,161.828 305,160.5C 305.044,158.721 305.711,157.055 307,155.5C 314.078,147.655 320.911,139.655 327.5,131.5 Z"/>
  <path fill="#f2dfd8" d="M 310.5,167.5 C 323.171,167.333 335.838,167.5 348.5,168C 350.333,169.167 351.833,170.667 353,172.5C 353.667,185.167 353.667,197.833 353,210.5C 351.833,212.333 350.333,213.833 348.5,215C 335.833,215.667 323.167,215.667 310.5,215C 309.069,214.535 307.903,213.701 307,212.5C 305.371,199.261 305.038,185.928 306,172.5C 307.025,170.313 308.525,168.646 310.5,167.5 Z"/>
  <path fill="#f2dfd8" d="M 224.5,212.5 C 227.862,212.07 230.695,213.07 233,215.5C 237,226.167 241,236.833 245,247.5C 246.291,252.562 244.458,256.062 239.5,258C 231.95,260.11 224.617,262.777 217.5,266C 212.995,267.962 208.328,268.629 203.5,268C 202.213,266.59 201.046,265.09 200,263.5C 196.917,253.247 193.25,243.247 189,233.5C 187.943,229.114 189.443,225.947 193.5,224C 203.916,220.033 214.249,216.199 224.5,212.5 Z"/>
  <path fill="#f2dfd8" d="M 258.5,221.5 C 270.838,221.333 283.171,221.5 295.5,222C 297.002,222.583 298.335,223.416 299.5,224.5C 300.648,238.121 300.815,251.788 300,265.5C 299.167,266.333 298.333,267.167 297.5,268C 283.833,268.667 270.167,268.667 256.5,268C 256,267.5 255.5,267 255,266.5C 253.371,253.261 253.038,239.928 254,226.5C 255.025,224.313 256.525,222.646 258.5,221.5 Z"/>
  <path fill="#f2dfd8" d="M 310.5,221.5 C 323.171,221.333 335.838,221.5 348.5,222C 349.579,222.956 350.745,223.789 352,224.5C 353.628,237.405 353.961,250.405 353,263.5C 352.215,265.286 351.049,266.786 349.5,268C 336.167,268.667 322.833,268.667 309.5,268C 308,267.167 306.833,266 306,264.5C 305.333,251.833 305.333,239.167 306,226.5C 307.025,224.313 308.525,222.646 310.5,221.5 Z"/>
  <path fill="#f2dfd8" d="M 204.5,275.5 C 217.171,275.333 229.838,275.5 242.5,276C 243.931,276.465 245.097,277.299 246,278.5C 247.628,291.405 247.961,304.405 247,317.5C 246.215,319.286 245.049,320.786 243.5,322C 230.167,322.667 216.833,322.667 203.5,322C 202.333,320.833 201.167,319.667 200,318.5C 199.333,305.833 199.333,293.167 200,280.5C 201.025,278.313 202.525,276.646 204.5,275.5 Z"/>
  <path fill="#f2dfd8" d="M 257.5,275.5 C 270.504,275.333 283.504,275.5 296.5,276C 297.416,276.374 298.25,276.874 299,277.5C 300.631,291.406 300.964,305.406 300,319.5C 299.167,320.333 298.333,321.167 297.5,322C 284.167,322.667 270.833,322.667 257.5,322C 256,321.167 254.833,320 254,318.5C 253.333,305.5 253.333,292.5 254,279.5C 255.376,278.295 256.542,276.962 257.5,275.5 Z"/>
  <path fill="#f2dfd8" d="M 310.5,275.5 C 323.171,275.333 335.838,275.5 348.5,276C 349.931,276.465 351.097,277.299 352,278.5C 353.628,291.405 353.961,304.405 353,317.5C 352.215,319.286 351.049,320.786 349.5,322C 336.167,322.667 322.833,322.667 309.5,322C 307.741,320.992 306.574,319.492 306,317.5C 305.333,305.167 305.333,292.833 306,280.5C 307.025,278.313 308.525,276.646 310.5,275.5 Z"/>
  <path fill="#f2dfd8" d="M 436.5,409.5 C 435.528,408.249 434.861,408.582 434.5,410.5C 434.543,411.416 434.876,412.083 435.5,412.5C 436.022,415.568 436.855,418.568 438,421.5C 438.498,424.817 438.665,428.15 438.5,431.5C 436.396,431.799 434.396,431.466 432.5,430.5C 429.482,424.8 427.316,418.8 426,412.5C 422.18,393.566 418.68,374.566 415.5,355.5C 415.729,349.915 418.395,347.915 423.5,349.5C 424.205,360.937 425.705,372.27 428,383.5C 428.419,384.672 429.085,385.672 430,386.5C 435.5,379.667 441.667,373.5 448.5,368C 452.28,365.035 456.113,364.869 460,367.5C 460.667,368.5 460.667,369.5 460,370.5C 450.227,378.103 442.061,387.103 435.5,397.5C 437.153,399.121 439.153,400.288 441.5,401C 450.405,404.286 459.405,407.286 468.5,410C 472.108,411.957 472.441,414.457 469.5,417.5C 464.504,418.588 459.504,418.421 454.5,417C 448.36,414.761 442.36,412.261 436.5,409.5 Z"/>
  <path fill="#f2dfd8" d="M 190.5,422.5 C 190.5,425.833 190.5,429.167 190.5,432.5C 188.833,432.5 187.167,432.5 185.5,432.5C 184.883,432.389 184.383,432.056 184,431.5C 183.814,429.1 183.314,426.766 182.5,424.5C 170.108,434.879 156.442,437.046 141.5,431C 140.789,429.745 139.956,428.579 139,427.5C 137.62,421.007 138.62,415.007 142,409.5C 151.582,399.295 163.248,392.629 177,389.5C 176.393,377.859 175.893,366.193 175.5,354.5C 177.792,354.244 179.959,354.577 182,355.5C 184.834,377.843 187.667,400.176 190.5,422.5 Z"/>
  <path fill="#f2dfd8" d="M 99.5,361.5 C 115.234,358.439 125.4,364.439 130,379.5C 132.028,396.898 127.195,412.065 115.5,425C 110.945,428.445 105.945,431.112 100.5,433C 84.7019,436.182 74.5353,430.015 70,414.5C 67.3751,389.738 77.2085,372.072 99.5,361.5 Z"/>
  <path fill="#000000" d="M 101.5,369.5 C 107.072,368.99 112.405,369.823 117.5,372C 120.851,376.755 122.184,382.088 121.5,388C 121.704,405.622 113.704,417.622 97.5,424C 87.5575,426.41 81.3908,422.577 79,412.5C 74.8844,395.717 80.8844,384.717 97,379.5C 96.3853,377.244 96.0519,374.911 96,372.5C 97.8761,371.391 99.7095,370.391 101.5,369.5 Z"/>
  <path fill="#f2dfd8" d="M 238.5,369.5 C 242.09,369.544 244.59,371.211 246,374.5C 248.689,392.075 246.022,408.741 238,424.5C 233.053,432.717 225.886,435.55 216.5,433C 211.226,429.726 207.392,425.226 205,419.5C 200.98,406.787 199.647,393.787 201,380.5C 203.128,377.542 205.794,376.876 209,378.5C 205.718,392.446 207.385,405.779 214,418.5C 220.574,424.18 226.574,423.513 232,416.5C 237.882,403.109 239.048,389.275 235.5,375C 235.12,372.297 236.12,370.463 238.5,369.5 Z"/>
  <path fill="#f2dfd8" d="M 373.5,374.5 C 388.7,372.866 397.867,379.533 401,394.5C 402.066,404.16 403.066,413.826 404,423.5C 404.931,425.459 405.764,427.459 406.5,429.5C 405.627,431.413 404.627,433.247 403.5,435C 402.216,435.684 401.049,435.517 400,434.5C 397.667,429.833 395.333,425.167 393,420.5C 388.437,424.06 383.604,427.227 378.5,430C 355.72,434.889 346.22,425.723 350,402.5C 353.863,389.739 361.696,380.406 373.5,374.5 Z"/>
  <path fill="#000000" d="M 376.5,383.5 C 379.518,383.335 382.518,383.502 385.5,384C 386.701,384.903 387.535,386.069 388,387.5C 388.863,395.564 388.53,403.564 387,411.5C 381.27,420.613 373.103,424.113 362.5,422C 360.951,420.786 359.785,419.286 359,417.5C 356.67,401.824 362.503,390.491 376.5,383.5 Z"/>
  <path fill="#f2dfd8" d="M 255.5,385.5 C 257.5,385.5 259.5,385.5 261.5,385.5C 262.794,395.35 265.627,404.684 270,413.5C 271.381,411.365 272.381,409.032 273,406.5C 273.243,391.439 280.076,387.439 293.5,394.5C 297.176,398.541 300.843,402.541 304.5,406.5C 307.862,399.968 312.195,394.135 317.5,389C 323.169,386.476 328.002,387.642 332,392.5C 338.846,404.236 341.846,416.902 341,430.5C 338.281,431.444 335.448,431.777 332.5,431.5C 330.978,421.037 328.811,410.703 326,400.5C 325.196,399.196 324.029,398.529 322.5,398.5C 319.223,399.942 316.723,402.275 315,405.5C 311.488,412.189 308.821,419.189 307,426.5C 302.32,428.605 298.987,427.272 297,422.5C 295.956,416.324 294.289,410.324 292,404.5C 286.982,399.838 283.648,400.838 282,407.5C 280.34,415.442 279.007,423.442 278,431.5C 275.757,433.282 273.257,433.782 270.5,433C 258.663,419.304 253.663,403.471 255.5,385.5 Z"/>
  <path fill="#000000" d="M 165.5,401.5 C 177.073,398.57 180.573,402.57 176,413.5C 169.55,421.765 161.05,425.599 150.5,425C 146.356,422.28 145.523,418.78 148,414.5C 152.739,408.562 158.573,404.228 165.5,401.5 Z"/>
</svg>
