<svg
  version="1.0"
  xmlns="http://www.w3.org/2000/svg"
  width="100%"
  height="100%"
  viewBox="0 0 518 482"
>
  <g transform="translate(0, 482) scale(0.1, -0.1)">
    <path
      class="animate__animated animate__fadeInDown"
      d="M2398 4293 l-3 -218 -230 -5 -230 -5 -3 -94 c-2 -53 2 -99 7 -104 6 -6 94 -9 224 -8 175 2 216 0 225 -12 9 -11 12 -135 10 -493 l-3 -479 -95 -7 c-398 -29 -708 -100 -1018 -231 -141 -60 -227 -120 -120 -84 93 31 245 68 403 95 201 36 219 38 573 72 133 13 623 13 771 0 414 -35 692 -81 966 -160 78 -22 80 -23 70 -12 -15 15 -159 86 -250 122 -263 105 -606 178 -925 196 -63 3 -121 11 -127 16 -10 8 -13 117 -13 484 0 367 3 475 13 481 6 4 44 8 82 8 39 0 136 1 218 3 l147 2 0 105 0 105 -225 0 c-124 0 -226 1 -227 3 -1 1 -4 99 -7 217 l-6 215 -112 3 -113 3 -2 -218z"
    />
    <g id="text__youngeun" class="animate__animated animate__fadeInDown">
      <path
        class="text__y"
        d="M464 2305 c-4 -8 0 -25 8 -38 16 -23 61 -103 104 -184 19 -36 25 -61 23 -98 -1 -27 -1 -67 0 -88 1 -37 2 -38 34 -35 l32 3 5 100 c5 108 6 111 95 261 25 42 45 78 45 80 0 2 -17 4 -37 4 -37 0 -39 -2 -84 -88 -25 -48 -52 -87 -60 -87 -8 0 -33 38 -56 85 -23 46 -50 88 -60 92 -29 11 -43 9 -49 -7z"
      />
      <path
        class="text__o"
        d="M1080 2311 c-43 -10 -86 -39 -105 -68 -21 -31 -32 -169 -21 -248 18 -116 162 -175 273 -110 64 38 73 63 73 209 l0 125 -37 39 c-50 53 -114 71 -183 53z m117 -75 c27 -23 28 -28 31 -133 3 -87 1 -114 -13 -139 -30 -56 -90 -69 -146 -31 -30 20 -35 30 -43 84 -5 34 -5 91 -1 128 5 54 12 72 32 91 36 33 101 33 140 0z"
      />
      <path
        class="text__u"
        d="M1480 2151 c0 -166 6 -200 43 -239 66 -71 219 -69 276 4 34 43 42 94 39 246 l-3 143 -35 0 -35 0 3 -145 c2 -80 -1 -158 -6 -175 -10 -34 -63 -75 -99 -75 -37 0 -81 27 -98 60 -11 22 -15 65 -15 185 l0 155 -35 0 -35 0 0 -159z"
      />
      <path
        class="text__n"
        d="M2037 2303 c-2 -4 -4 -105 -3 -223 l1 -215 38 -3 37 -3 0 151 c0 117 3 151 13 148 6 -3 59 -70 117 -149 94 -129 109 -144 138 -147 l32 -3 0 225 0 226 -35 0 -35 0 0 -144 c0 -80 -4 -147 -9 -150 -10 -6 -20 6 -133 169 -79 112 -87 120 -120 123 -20 2 -38 -1 -41 -5z"
      />
      <path
        class="text__g"
        d="M2723 2311 c-87 -22 -116 -65 -121 -182 -6 -117 3 -172 35 -209 53 -64 162 -80 238 -35 60 34 75 63 78 143 l2 67 -84 3 c-85 3 -106 -5 -94 -35 3 -8 22 -13 53 -13 56 0 62 -9 46 -65 -9 -30 -20 -44 -46 -57 -47 -23 -71 -22 -110 5 -43 28 -53 67 -48 186 4 90 5 95 34 117 20 17 42 24 73 24 39 0 49 -5 81 -40 38 -41 76 -52 86 -25 7 18 -27 67 -65 94 -32 23 -111 34 -158 22z"
      />
      <path
        class="text__e"
        d="M3158 2308 c-14 -11 -16 -40 -15 -228 l2 -215 158 -3 157 -3 0 25 c0 32 -14 36 -136 36 l-104 0 0 70 0 69 98 3 97 3 3 28 3 27 -100 0 -101 0 0 70 0 70 121 0 120 0 -3 28 -3 27 -140 3 c-102 2 -145 -1 -157 -10z"
      />
      <path
        class="text__u__second"
        d="M3637 2304 c-10 -10 -8 -282 2 -327 17 -73 82 -117 172 -117 60 0 95 15 135 57 28 30 32 40 36 115 3 46 3 127 0 181 l-5 97 -28 0 -29 0 0 -150 c0 -170 -10 -209 -59 -234 -41 -22 -72 -20 -112 7 -43 29 -49 58 -47 232 l1 140 -29 3 c-16 2 -33 0 -37 -4z"
      />
      <path
        class="text__n"
        d="M4180 2084 l0 -225 33 3 32 3 3 148 c1 81 7 147 12 147 14 0 37 -27 90 -104 125 -180 134 -191 168 -194 l32 -3 0 226 0 226 -32 -3 -33 -3 -1 -138 c-2 -137 -11 -179 -32 -141 -6 11 -33 51 -61 89 -28 39 -72 98 -97 133 -40 55 -49 62 -80 62 l-34 0 0 -226z"
      />
    </g>
    <g
      id="text__basic"
      class="animate__animated animate__fadeInDown animate__delay-1s"
    >
      <path
        class="text__basic text__b"
        d="M567 1663 c-2 -5 -3 -152 -3 -328 l1 -320 179 -3 c205 -3 255 7 310 63 66 66 69 185 6 239 -27 23 -41 56 -22 56 4 0 17 15 30 33 26 40 30 122 7 167 -20 38 -70 75 -120 89 -45 12 -382 15 -388 4z m332 -147 c25 -22 27 -68 6 -86 -16 -13 -118 -23 -147 -14 -14 4 -18 17 -18 58 0 29 3 56 8 60 14 15 130 1 151 -18z m21 -278 c13 -25 13 -31 0 -55 -15 -27 -19 -28 -95 -28 l-80 0 -3 54 c-2 30 1 57 6 60 6 3 43 4 83 1 67 -5 75 -7 89 -32z"
      />
      <path
        class="text__basic text__a"
        d="M1720 1650 c-6 -11 -54 -129 -106 -262 -53 -134 -101 -256 -108 -273 -28 -64 -36 -86 -36 -95 0 -6 39 -10 88 -10 85 0 89 1 100 25 7 14 12 32 12 40 0 8 9 19 19 25 23 12 200 14 218 2 7 -4 18 -25 25 -47 l13 -40 88 -3 c58 -2 87 1 87 8 0 6 -18 55 -39 108 -22 53 -58 147 -81 207 -23 61 -46 119 -50 130 -5 11 -24 61 -43 110 l-35 90 -70 3 c-63 3 -72 1 -82 -18z m118 -312 c33 -94 32 -98 -32 -98 -30 0 -57 4 -60 9 -5 8 26 120 39 142 15 23 33 4 53 -53z"
      />
      <path
        class="text__basic text__s"
        d="M2647 1665 c-131 -36 -200 -157 -153 -269 29 -69 82 -99 213 -120 89 -14 123 -34 123 -71 0 -43 -34 -60 -120 -58 -49 1 -89 7 -108 17 -44 23 -51 21 -107 -29 l-50 -45 25 -20 c14 -11 50 -29 80 -41 47 -17 72 -20 170 -17 100 3 122 6 164 28 27 14 63 42 80 63 29 36 31 44 31 116 -1 89 -20 127 -82 156 -44 21 -143 44 -190 45 -37 0 -73 30 -73 60 0 10 10 28 22 40 27 25 117 28 173 4 l37 -15 47 39 c25 22 46 45 46 53 0 33 -135 79 -230 78 -27 -1 -72 -7 -98 -14z"
      />
      <path
        class="text__basic text__i"
        d="M3444 1667 c-12 -7 -14 -63 -14 -332 l0 -325 90 0 90 0 0 329 0 329 -76 4 c-41 2 -82 -1 -90 -5z"
      />
      <path
        class="text__basic text__c"
        d="M4227 1665 c-60 -17 -129 -69 -159 -120 -21 -37 -22 -52 -23 -195 0 -174 8 -211 58 -261 56 -55 120 -79 215 -79 133 0 213 48 257 154 21 50 12 56 -78 56 -66 0 -70 -1 -99 -35 -37 -41 -74 -51 -121 -31 -49 20 -60 60 -55 215 l3 123 30 24 c46 37 96 33 138 -11 33 -34 35 -35 116 -35 l81 0 -6 28 c-34 135 -196 211 -357 167z"
      />
    </g>
    <g
      id="text__2021-2025"
      class="animate__animated animate__fadeInDown animate__delay-2s"
    >
      <path
        class="text__2"
        d="M1532 680 c-19 -18 -21 -25 -11 -36 10 -13 15 -11 36 8 19 17 28 20 41 12 31 -20 24 -44 -32 -107 -79 -87 -76 -97 25 -97 60 0 80 3 77 13 -3 6 -20 13 -39 15 -62 5 -63 9 -19 60 61 68 68 87 43 120 -27 36 -88 42 -121 12z"
      />
      <path
        class="text__0"
        d="M1780 682 c-19 -15 -22 -28 -23 -104 -2 -100 9 -117 76 -118 61 0 77 25 77 120 0 69 -3 82 -22 100 -27 25 -78 26 -108 2z m74 -28 c16 -16 19 -72 7 -129 -8 -38 -40 -41 -58 -5 -18 36 -16 110 4 132 20 22 27 22 47 2z"
      />
      <path
        class="text__2"
        d="M2022 680 c-24 -23 -27 -35 -11 -45 6 -4 22 3 35 16 20 18 29 21 42 13 33 -21 25 -44 -37 -109 -83 -86 -81 -95 19 -95 64 0 80 3 80 15 0 11 -11 15 -39 15 -22 0 -42 4 -45 8 -3 5 15 33 39 61 52 60 59 100 23 125 -31 22 -80 20 -106 -4z"
      />
      <path
        class="text__1"
        d="M2276 674 c-33 -34 -33 -45 2 -42 l27 3 3 -87 c3 -80 5 -88 22 -88 19 0 20 7 20 120 0 119 0 120 -24 120 -13 0 -35 -12 -50 -26z"
      />
      <path
        class="text__-"
        d="M2480 555 c0 -13 10 -15 50 -13 67 4 69 22 3 26 -43 2 -53 0 -53 -13z"
      />
      <path
        class="text__2"
        d="M2702 680 c-24 -23 -27 -35 -11 -45 6 -4 22 3 35 16 20 18 29 21 42 13 32 -21 24 -44 -38 -110 -33 -36 -59 -71 -57 -77 2 -7 33 -13 80 -15 64 -2 77 0 77 13 0 11 -11 15 -39 15 -22 0 -42 4 -45 8 -3 5 15 33 39 61 52 60 59 100 23 125 -31 22 -80 20 -106 -4z"
      />
      <path
        class="text__0"
        d="M2941 674 c-17 -21 -21 -41 -21 -99 0 -62 3 -74 23 -93 31 -29 86 -29 116 -1 21 20 23 29 19 105 -3 95 -16 113 -80 114 -28 0 -41 -6 -57 -26z m81 -21 c26 -24 26 -123 -2 -148 -37 -33 -50 -14 -50 74 0 73 4 85 29 90 3 1 13 -6 23 -16z"
      />
      <path
        class="text__2"
        d="M3192 684 c-12 -8 -22 -21 -22 -29 0 -25 21 -28 44 -6 12 12 25 21 28 21 10 0 38 -31 38 -42 0 -5 -28 -38 -61 -73 -79 -83 -76 -95 26 -95 60 0 75 3 75 15 0 11 -12 15 -45 15 -25 0 -45 5 -45 10 0 6 20 33 45 59 51 55 57 86 22 119 -27 26 -73 29 -105 6z"
      />
      <path
        class="text__2"
        d="M3410 634 l0 -66 45 6 c41 7 46 5 56 -17 22 -48 -22 -87 -57 -52 -20 20 -44 19 -44 -1 0 -43 94 -60 130 -24 20 20 28 83 12 106 -11 18 -49 34 -77 34 -22 0 -26 4 -23 23 3 19 10 22 56 25 81 5 62 26 -26 30 l-72 3 0 -67z"
      />
    </g>
  </g>
</svg>
